<?xml version="1.0" encoding="UTF-8"?>
<svg width="23px" height="12px" viewBox="0 0 23 12" version="1.1" xmlns="http://www.w3.org/2000/svg" xmlns:xlink="http://www.w3.org/1999/xlink">
    <!-- Generator: Sketch 51.2 (57519) - http://www.bohemiancoding.com/sketch -->
    <title>Combined Shape</title>
    <desc>Created with Sketch.</desc>
    <defs></defs>
    <g id="Page-1" stroke="none" stroke-width="1" fill="none" fill-rule="evenodd">
        <g id="Desktop" transform="translate(-1395.000000, -1424.000000)" fill="#FFFFFF" fill-rule="nonzero">
            <g id="Group-14-Copy-11" transform="translate(1379.000000, 1412.000000)">
                <g id="Group-17" transform="translate(16.000000, 12.000000)">
                    <g id="Group-21">
                        <path d="M7,9.66061931 L9.00657748,7.42938479 L9.98090478,8.46708752 L13.8738903,4.11938741 L16,6.62928638 L16,2 L7,2 L7,9.66061931 Z M6,0 L17,-2.22044605e-16 C17.5522847,-3.23497668e-16 18,0.44771525 18,1 L18,11 C18,11.5522847 17.5522847,12 17,12 L6,12 C5.44771525,12 5,11.5522847 5,11 L5,1 C5,0.44771525 5.44771525,1.01453063e-16 6,0 Z M3.85581972,8.47289914 C4.14150238,8.94555532 3.98993038,9.56031041 3.5172742,9.84599306 C3.04461802,10.1316757 2.42986293,9.98010372 2.14418028,9.50744754 L0.0310535439,6.01132202 L2.14418028,2.5151965 C2.42986293,2.04254032 3.04461802,1.89096833 3.5172742,2.17665098 C3.98993038,2.46233363 4.14150238,3.07708872 3.85581972,3.5497449 L2.36799431,6.01132202 L3.85581972,8.47289914 Z M19.1443283,8.44057649 L20.6321537,5.97899937 L19.1443283,3.51742225 C18.8586457,3.04476607 19.0102177,2.43001098 19.4828738,2.14432833 C19.95553,1.85864567 20.5702851,2.01021767 20.8559678,2.48287385 L22.9690945,5.97899937 L20.8559678,9.47512489 C20.5702851,9.94778107 19.95553,10.0993531 19.4828738,9.81367041 C19.0102177,9.52798776 18.8586457,8.91323267 19.1443283,8.44057649 Z" id="Combined-Shape"></path>
                    </g>
                </g>
            </g>
        </g>
    </g>
</svg>